<svg version="1.1" xmlns="http://www.w3.org/2000/svg" viewBox="0 0 384 512" width="2px" height="24px">
  <path fill="currentColor" d="M318.7 268.7c-.2-36.7 16.4-64.4 50-84.8-18.8-26.9-47.2-41.7-84.7-44.6-35.5-2.8-74.3 20.7-88.5 20.7-15 0-51.9-19.7-80.4-19.7-41.4 0-79.6 26.5-101.9 63.4-36.8 65.5-7.1 162.7 32 216 17.5 24 38.3 46 63.9 44.9 24.3-1 34.6-16.7 65.5-16.7 30 0 38.9 16.7 65.1 16.7 26.2 0 45.4-23 64-47.9 19.3-26.6 27.2-49.8 28.1-52.6-64.3-25.1-63.6-114-13.1-135.2zM232.9 84.8c18.5-23.7 31-56.1 27.2-84.8-26.3 1.3-58.4 18.2-76.8 41.2-16.6 21-31.5 54.7-27.7 82.5 29.5 2.1 59-15.6 77.3-38.9z"/>
</svg>
