<svg width="20" height="20" viewBox="0 0 24 24" fill="none"
     xmlns="http://www.w3.org/2000/svg">
  <rect x="2" y="2" width="20" height="20" rx="4"
        fill="#151827"/>
  <path d="M15.73 4.5C14.9 4.55 13.93 4.99 13.37 5.59C12.87 6.12 12.49 6.93 12.64 7.71C13.45 7.76 14.31 7.3 14.81 6.73C15.29 6.18 15.63 5.39 15.73 4.5ZM17.89 10.01C17.02 9.47 16.36 9.39 15.94 9.38C15.16 9.3 14.44 9.74 14.01 9.74C13.57 9.74 12.96 9.41 12.3 9.42C11.47 9.44 10.7 9.9 10.24 10.63C9.36 11.96 9.51 14.06 10.67 15.75C11.14 16.45 11.73 17.21 12.52 17.18C13.27 17.15 13.56 16.71 14.51 16.71C15.45 16.71 15.72 17.18 16.5 17.16C17.3 17.15 17.83 16.45 18.3 15.74C18.73 15.13 18.9 14.86 19.22 14.14C17.97 13.68 17.72 11.67 17.89 10.01Z"
        fill="white"/>
</svg>
