<svg xmlns="http://www.w3.org/2000/svg" viewBox="0 0 512 512" width="24px" height="24px">
  <path fill="currentColor" d="M255.4 125.1c-14.7 0-41.9-19-81.5-19-54 0-112.5 35.5-112.5 125.8 0 83.2 60.1 206 110.1 206 20.3 0 33.3-13.1 57.5-13.1 23.5 0 38.8 13.4 58.7 13.4 51.5 0 101.4-106 101.4-166.4 0-1.2 0-2.4-.1-3.6-1.5-50.6-43.7-88.6-86.8-88.6-26.6 0-42.3 14-46.8 14-6.3 0-22.3-15.5-47.5-15.5zM294.5 1.1c-28.7 1.8-63.1 24-74.1 52.8-11.7 30.6 2.3 64.9 29.5 66.8 2.3.2 4.6.3 6.9.3 26.6 0 57.1-22.1 69-52.6 12.8-32.9-4-65.7-31.3-67.3z"/>
</svg>
