<svg version="1.1" xmlns="http://www.w3.org/2000/svg" viewBox="0 0 48 48" width="24px" height="24px">
  <path fill="#1877F2" d="M24,0C10.7,0,0,10.7,0,24c0,12,8.8,21.9,20.3,23.6V29.3H14.2V24h6.1v-5.3c0-6,3.6-9.3,9-9.3c2.6,0,5.3,0.5,5.3,0.5v5.8h-3c-3,0-3.9,1.9-3.9,3.8V24h6.6l-1.1,5.3h-5.5v18.3C39.2,45.9,48,36,48,24C48,10.7,37.3,0,24,0z"></path>
  <path fill="#FFFFFF" d="M29.5,29.3l1.1-5.3h-6.6v-4.5c0-1.9,0.9-3.8,3.9-3.8h3v-5.8c0,0-2.7-0.5-5.3-0.5c-5.4,0-9,3.3-9,9.3v5.3h-6.1v5.3h6.1v18.3c1.2,0.2,2.5,0.3,3.8,0.3s2.5-0.1,3.8-0.3V29.3H29.5z"></path>
</svg>
