<svg width="20" height="20" viewBox="0 0 24 24" fill="none"
     xmlns="http://www.w3.org/2000/svg">
  <rect x="2" y="2" width="20" height="20" rx="4"
        fill="#151827"/>
  <path d="M20 12.25C20 11.68 19.95 11.14 19.86 10.6H12V13.66H16.59C16.41 14.62 15.86 15.43 15.03 15.96V17.96H17.48C18.89 16.64 20 14.69 20 12.25Z"
        fill="#4285F4"/>
  <path d="M12 20C14.16 20 15.96 19.29 17.48 17.96L15.03 15.96C14.27 16.46 13.26 16.76 12 16.76C9.91 16.76 8.14 15.43 7.51 13.55H4.98V15.61C6.49 18.26 9.04 20 12 20Z"
        fill="#34A853"/>
  <path d="M7.51 13.55C7.18 12.59 7.18 11.43 7.51 10.47V8.41H4.98C4.16 9.99 4.16 12.03 4.98 13.61L7.51 13.55Z"
        fill="#FBBC05"/>
  <path d="M12 7.24C13.35 7.24 14.57 7.71 15.52 8.6L17.54 6.58C15.95 5.09 14.16 4.36 12 4.36C9.04 4.36 6.49 6.1 4.98 8.75L7.51 10.47C8.14 8.59 9.91 7.24 12 7.24Z"
        fill="#EA4335"/>
</svg>
